<svg xmlns="http://www.w3.org/2000/svg" viewBox="0 0 1500 1500" fill="none">
  <path fill="currentColor" d="M 1270.808594 714.507812 L 1251.277344 664.914062 C 1244.625 648.492188 1237.875 632.117188 1231.023438 615.789062 C 1224.082031 599.503906 1217.25 583.140625 1210.140625 566.996094 L 1204.878906 555.148438 L 1188.675781 554.15625 C 1143.328125 551.398438 1097.976562 549.167969 1052.652344 546.9375 L 984.625 543.933594 C 967.304688 543.160156 949.964844 542.472656 932.605469 541.867188 C 917.464844 526.53125 901.503906 512.105469 884.722656 498.582031 C 874.527344 490.316406 863.835938 482.851562 853.257812 475.136719 C 842.429688 467.863281 831.601562 460.503906 820.441406 453.835938 C 776.054688 426.285156 728.445312 405.179688 679.925781 387.878906 C 631.328125 370.96875 581.675781 358.109375 530.980469 349.304688 C 505.769531 344.921875 480.394531 341.644531 454.878906 339.191406 C 442.125 337.980469 429.3125 336.960938 416.308594 336.273438 L 396.855469 335.417969 C 390.132812 335.253906 384.152344 335.058594 376.300781 335.171875 L 331.253906 335.859375 L 330.867188 380.605469 C 330.867188 388.457031 330.867188 394.378906 331.117188 401.183594 L 331.96875 420.636719 C 332.660156 433.53125 333.675781 446.316406 334.890625 459.210938 C 337.371094 484.722656 340.59375 510.097656 345.058594 535.308594 C 353.832031 586.007812 366.691406 635.644531 383.628906 684.230469 C 400.691406 733.410156 422.734375 780.25 449.753906 824.746094 C 462.035156 845.191406 475.535156 864.796875 490.253906 883.5625 C 504.976562 902.328125 520.800781 920.109375 537.730469 936.910156 L 539.683594 989.09375 L 542.441406 1057.3125 C 544.535156 1102.773438 546.683594 1148.234375 549.273438 1193.722656 L 550.183594 1209.925781 L 562.140625 1215.132812 C 578.285156 1222.296875 594.652344 1229.046875 610.90625 1236.015625 C 627.164062 1242.988281 643.613281 1249.65625 660.035156 1256.292969 L 709.628906 1275.855469 C 726.160156 1282.082031 742.855469 1288.503906 759.71875 1294.316406 C 745.609375 1283.296875 731.199219 1273.019531 716.875 1262.464844 L 673.421875 1231.71875 C 658.875 1221.578125 644.273438 1211.558594 629.617188 1201.660156 C 619.339844 1194.824219 609.117188 1187.882812 598.867188 1181.132812 C 601.15625 1139.804688 603.136719 1098.476562 605.039062 1057.148438 L 607.792969 988.929688 L 610.328125 920.738281 L 610.851562 906.960938 L 599.613281 894.890625 C 584.0625 878.222656 569.734375 860.5625 556.628906 841.910156 C 549.988281 832.652344 543.902344 822.953125 537.675781 813.421875 C 531.449219 803.886719 525.855469 793.859375 520.507812 783.71875 C 498.605469 742.980469 480.808594 700.523438 467.113281 656.347656 C 453.078125 611.8125 442.503906 566.46875 435.402344 520.320312 C 431.761719 497.257812 428.816406 474.03125 426.804688 450.804688 C 426.179688 443.714844 425.648438 436.652344 425.207031 429.617188 C 432.257812 430.085938 439.339844 430.609375 446.394531 431.21875 C 469.621094 433.253906 492.847656 436.148438 515.90625 439.867188 C 562.066406 446.90625 607.40625 457.449219 651.933594 471.5 C 696.09375 485.195312 738.53125 502.992188 779.25 524.894531 C 789.417969 530.238281 799.144531 536.191406 808.980469 542.03125 C 818.511719 548.285156 828.265625 554.347656 837.441406 561.015625 C 856.125 574.074219 873.816406 588.363281 890.507812 603.886719 L 902.464844 614.90625 L 916.242188 614.523438 C 938.917969 613.914062 961.59375 613.089844 984.265625 612.207031 L 1052.292969 609.589844 C 1093.457031 607.769531 1134.648438 605.925781 1175.808594 603.75 C 1182.617188 614 1189.585938 624.21875 1196.335938 634.441406 C 1206.21875 649.136719 1216.238281 663.75 1226.394531 678.277344 L 1257.199219 721.699219 C 1267.75 736.027344 1278.113281 750.4375 1289.078125 764.542969 C 1283.429688 747.738281 1277.007812 731.175781 1270.808594 714.507812 Z M 1270.808594 714.507812"/>
  <path fill="currentColor" d="M 702.65625 1033.039062 C 702.105469 1033.976562 701.597656 1034.941406 701.140625 1035.929688 C 700.683594 1036.921875 700.273438 1037.929688 699.914062 1038.957031 C 699.554688 1039.988281 699.25 1041.03125 698.992188 1042.089844 C 698.734375 1043.148438 698.53125 1044.21875 698.378906 1045.296875 C 698.226562 1046.375 698.128906 1047.460938 698.085938 1048.546875 C 698.039062 1049.636719 698.046875 1050.726562 698.109375 1051.8125 C 698.171875 1052.902344 698.285156 1053.984375 698.453125 1055.0625 C 698.621094 1056.136719 698.839844 1057.203125 699.113281 1058.257812 C 699.386719 1059.3125 699.707031 1060.351562 700.082031 1061.375 C 700.457031 1062.398438 700.882812 1063.402344 701.355469 1064.382812 C 701.828125 1065.367188 702.347656 1066.320312 702.914062 1067.253906 C 703.480469 1068.183594 704.089844 1069.085938 704.746094 1069.957031 C 705.402344 1070.828125 706.097656 1071.664062 706.832031 1072.464844 C 707.570312 1073.269531 708.34375 1074.03125 709.15625 1074.757812 C 709.96875 1075.484375 710.816406 1076.171875 711.695312 1076.8125 C 712.574219 1077.457031 713.484375 1078.054688 714.421875 1078.609375 L 1034.964844 1267.644531 L 752.910156 1024.746094 C 751.40625 1023.449219 749.796875 1022.292969 748.089844 1021.273438 C 747.152344 1020.726562 746.191406 1020.226562 745.203125 1019.773438 C 744.21875 1019.320312 743.210938 1018.917969 742.183594 1018.5625 C 741.15625 1018.207031 740.117188 1017.902344 739.0625 1017.648438 C 738.003906 1017.398438 736.941406 1017.195312 735.863281 1017.046875 C 734.789062 1016.898438 733.707031 1016.800781 732.625 1016.757812 C 731.539062 1016.714844 730.453125 1016.726562 729.371094 1016.789062 C 728.285156 1016.851562 727.207031 1016.96875 726.136719 1017.136719 C 725.0625 1017.304688 724 1017.523438 722.949219 1017.796875 C 721.898438 1018.070312 720.863281 1018.390625 719.84375 1018.765625 C 718.824219 1019.140625 717.824219 1019.5625 716.847656 1020.03125 C 715.867188 1020.503906 714.914062 1021.019531 713.988281 1021.585938 C 713.0625 1022.148438 712.164062 1022.757812 711.292969 1023.410156 C 710.425781 1024.0625 709.59375 1024.753906 708.792969 1025.488281 C 707.992188 1026.222656 707.230469 1026.992188 706.503906 1027.800781 C 705.777344 1028.609375 705.09375 1029.449219 704.453125 1030.324219 C 703.808594 1031.203125 703.210938 1032.105469 702.65625 1033.039062 Z M 702.65625 1033.039062"/>
  <path fill="currentColor" d="M 1064.746094 719.882812 C 1064.03125 719.074219 1063.277344 718.300781 1062.484375 717.566406 C 1061.691406 716.832031 1060.867188 716.140625 1060.007812 715.484375 C 1059.148438 714.832031 1058.257812 714.222656 1057.339844 713.652344 C 1056.421875 713.085938 1055.476562 712.5625 1054.507812 712.089844 C 1053.539062 711.613281 1052.546875 711.1875 1051.535156 710.808594 C 1050.523438 710.429688 1049.496094 710.097656 1048.453125 709.820312 C 1047.410156 709.539062 1046.355469 709.3125 1045.289062 709.136719 C 1044.226562 708.960938 1043.152344 708.835938 1042.078125 708.761719 C 1041 708.691406 1039.921875 708.671875 1038.839844 708.703125 C 1037.761719 708.738281 1036.6875 708.820312 1035.613281 708.960938 C 1034.542969 709.097656 1033.480469 709.285156 1032.429688 709.527344 C 1031.375 709.769531 1030.335938 710.058594 1029.3125 710.402344 C 1028.289062 710.742188 1027.285156 711.132812 1026.296875 711.574219 C 1025.3125 712.015625 1024.347656 712.5 1023.410156 713.035156 C 1022.46875 713.566406 1021.558594 714.144531 1020.675781 714.769531 C 1019.792969 715.390625 1018.941406 716.054688 1018.125 716.757812 C 1017.308594 717.464844 1016.523438 718.207031 1015.777344 718.988281 C 1015.035156 719.769531 1014.328125 720.585938 1013.660156 721.433594 C 1012.996094 722.285156 1012.371094 723.164062 1011.789062 724.074219 C 1011.210938 724.984375 1010.675781 725.921875 1010.183594 726.886719 C 1009.695312 727.847656 1009.253906 728.832031 1008.859375 729.835938 C 1008.464844 730.84375 1008.121094 731.867188 1007.828125 732.90625 C 1007.535156 733.945312 1007.289062 734.996094 1007.097656 736.058594 C 1006.90625 737.121094 1006.765625 738.191406 1006.679688 739.265625 C 1006.589844 740.34375 1006.554688 741.421875 1006.574219 742.5 C 1006.589844 743.582031 1006.660156 744.65625 1006.78125 745.730469 C 1006.902344 746.804688 1007.078125 747.867188 1007.304688 748.925781 C 1007.527344 749.980469 1007.804688 751.023438 1008.132812 752.050781 C 1008.460938 753.082031 1008.835938 754.09375 1009.261719 755.085938 C 1009.6875 756.078125 1010.160156 757.046875 1010.679688 757.992188 C 1011.199219 758.941406 1011.765625 759.859375 1012.375 760.75 C 1012.984375 761.644531 1013.632812 762.503906 1014.328125 763.332031 L 1257.226562 1045.246094 L 1068.191406 724.703125 C 1067.175781 723 1066.027344 721.394531 1064.746094 719.882812 Z M 1064.746094 719.882812"/>
  <path fill="currentColor" d="M 785.3125 649.625 C 785.3125 647.164062 785.246094 644.707031 785.117188 642.25 C 784.984375 639.796875 784.789062 637.34375 784.523438 634.898438 C 784.261719 632.453125 783.9375 630.019531 783.542969 627.589844 C 783.152344 625.164062 782.695312 622.746094 782.175781 620.34375 C 781.65625 617.941406 781.070312 615.550781 780.421875 613.179688 C 779.773438 610.808594 779.066406 608.453125 778.292969 606.117188 C 777.519531 603.785156 776.683594 601.472656 775.785156 599.183594 C 774.890625 596.890625 773.933594 594.628906 772.917969 592.386719 C 771.898438 590.148438 770.824219 587.9375 769.6875 585.757812 C 768.554688 583.574219 767.363281 581.425781 766.113281 579.308594 C 764.863281 577.191406 763.558594 575.105469 762.199219 573.058594 C 760.835938 571.007812 759.421875 569 757.957031 567.023438 C 756.488281 565.050781 754.96875 563.117188 753.398438 561.226562 C 751.828125 559.335938 750.207031 557.484375 748.539062 555.679688 C 746.867188 553.871094 745.152344 552.113281 743.390625 550.398438 C 741.625 548.683594 739.820312 547.015625 737.96875 545.398438 C 736.117188 543.78125 734.222656 542.214844 732.289062 540.695312 C 730.351562 539.179688 728.378906 537.714844 726.363281 536.300781 C 724.351562 534.890625 722.300781 533.53125 720.214844 532.230469 C 718.128906 530.925781 716.011719 529.679688 713.859375 528.488281 C 711.707031 527.300781 709.523438 526.167969 707.3125 525.09375 C 705.097656 524.019531 702.859375 523.007812 700.59375 522.050781 C 698.328125 521.097656 696.035156 520.203125 693.722656 519.371094 C 691.410156 518.539062 689.074219 517.769531 686.71875 517.0625 C 684.363281 516.351562 681.992188 515.707031 679.601562 515.128906 C 677.210938 514.546875 674.808594 514.027344 672.390625 513.574219 C 669.976562 513.121094 667.546875 512.730469 665.109375 512.40625 C 662.671875 512.085938 660.226562 511.824219 657.777344 511.632812 C 655.324219 511.4375 652.871094 511.308594 650.410156 511.246094 C 647.953125 511.183594 645.496094 511.183594 643.035156 511.253906 C 640.578125 511.320312 638.125 511.453125 635.671875 511.652344 C 633.222656 511.851562 630.777344 512.117188 628.339844 512.445312 C 625.902344 512.773438 623.476562 513.167969 621.058594 513.625 C 618.644531 514.085938 616.242188 514.605469 613.851562 515.191406 C 611.464844 515.78125 609.09375 516.429688 606.738281 517.140625 C 604.386719 517.855469 602.054688 518.628906 599.742188 519.464844 C 597.429688 520.304688 595.140625 521.203125 592.875 522.160156 C 590.609375 523.121094 588.375 524.136719 586.164062 525.214844 C 583.953125 526.292969 581.773438 527.429688 579.625 528.625 C 577.472656 529.820312 575.359375 531.070312 573.273438 532.378906 C 571.191406 533.683594 569.144531 535.046875 567.132812 536.460938 C 565.125 537.878906 563.152344 539.347656 561.21875 540.867188 C 559.289062 542.390625 557.398438 543.960938 555.546875 545.582031 C 553.699219 547.207031 551.894531 548.875 550.136719 550.59375 C 548.378906 552.3125 546.664062 554.074219 545 555.882812 C 543.332031 557.695312 541.71875 559.546875 540.152344 561.441406 C 538.585938 563.335938 537.070312 565.273438 535.605469 567.25 C 534.140625 569.226562 532.730469 571.238281 531.375 573.289062 C 530.019531 575.34375 528.71875 577.429688 527.472656 579.546875 C 526.226562 581.667969 525.039062 583.820312 523.910156 586.003906 C 522.777344 588.191406 521.707031 590.402344 520.695312 592.644531 C 519.683594 594.882812 518.730469 597.152344 517.839844 599.441406 C 516.945312 601.734375 516.117188 604.046875 515.347656 606.382812 C 514.578125 608.71875 513.875 611.074219 513.230469 613.449219 C 512.585938 615.824219 512.007812 618.210938 511.492188 620.617188 C 510.976562 623.019531 510.523438 625.4375 510.136719 627.867188 C 509.75 630.292969 509.429688 632.730469 509.171875 635.175781 C 508.914062 637.625 508.722656 640.074219 508.597656 642.53125 C 508.46875 644.984375 508.410156 647.445312 508.414062 649.902344 C 508.417969 652.363281 508.488281 654.820312 508.625 657.273438 C 508.757812 659.730469 508.960938 662.179688 509.226562 664.625 C 509.492188 667.070312 509.824219 669.507812 510.21875 671.933594 C 510.613281 674.359375 511.074219 676.773438 511.597656 679.175781 C 512.125 681.582031 512.710938 683.96875 513.363281 686.339844 C 514.015625 688.710938 514.730469 691.0625 515.507812 693.394531 C 516.285156 695.730469 517.121094 698.039062 518.023438 700.328125 C 518.921875 702.617188 519.882812 704.878906 520.902344 707.117188 C 521.925781 709.355469 523.003906 711.5625 524.140625 713.742188 C 525.28125 715.921875 526.476562 718.070312 527.730469 720.1875 C 528.980469 722.304688 530.289062 724.382812 531.65625 726.429688 C 533.019531 728.476562 534.4375 730.484375 535.90625 732.457031 C 537.378906 734.425781 538.898438 736.359375 540.472656 738.246094 C 542.046875 740.136719 543.667969 741.984375 545.34375 743.785156 C 547.015625 745.589844 548.734375 747.347656 550.5 749.058594 C 552.265625 750.769531 554.074219 752.433594 555.929688 754.050781 C 557.785156 755.664062 559.679688 757.230469 561.617188 758.742188 C 563.554688 760.257812 565.53125 761.71875 567.546875 763.128906 C 569.5625 764.539062 571.613281 765.890625 573.703125 767.191406 C 575.789062 768.492188 577.910156 769.734375 580.066406 770.917969 C 582.21875 772.105469 584.402344 773.234375 586.617188 774.304688 C 588.832031 775.375 591.074219 776.386719 593.339844 777.335938 C 595.609375 778.285156 597.902344 779.175781 600.214844 780.003906 C 602.53125 780.832031 604.867188 781.601562 607.222656 782.304688 C 609.578125 783.007812 611.953125 783.648438 614.34375 784.226562 C 616.734375 784.804688 619.136719 785.316406 621.554688 785.765625 C 623.972656 786.21875 626.402344 786.601562 628.839844 786.921875 C 631.277344 787.242188 633.722656 787.496094 636.175781 787.6875 C 638.628906 787.875 641.082031 788 643.539062 788.058594 C 646 788.121094 648.457031 788.113281 650.914062 788.039062 C 653.375 787.96875 655.828125 787.832031 658.28125 787.628906 C 660.730469 787.425781 663.175781 787.15625 665.609375 786.824219 C 668.046875 786.492188 670.472656 786.09375 672.886719 785.632812 C 675.304688 785.167969 677.707031 784.644531 680.09375 784.054688 C 682.480469 783.464844 684.851562 782.808594 687.203125 782.09375 C 689.554688 781.375 691.886719 780.597656 694.199219 779.757812 C 696.507812 778.917969 698.796875 778.015625 701.058594 777.050781 L 1251.910156 1262.328125 L 769.25 714.425781 C 771.890625 709.457031 774.214844 704.34375 776.226562 699.089844 C 778.238281 693.835938 779.921875 688.476562 781.273438 683.015625 C 782.628906 677.554688 783.644531 672.027344 784.320312 666.441406 C 784.996094 660.855469 785.324219 655.25 785.3125 649.625 Z M 600.078125 696.460938 C 599.1875 695.570312 598.316406 694.65625 597.476562 693.714844 C 596.632812 692.773438 595.820312 691.808594 595.035156 690.820312 C 594.246094 689.832031 593.488281 688.824219 592.761719 687.792969 C 592.03125 686.761719 591.332031 685.710938 590.664062 684.640625 C 589.996094 683.570312 589.359375 682.480469 588.753906 681.375 C 588.144531 680.265625 587.570312 679.140625 587.03125 678 C 586.488281 676.863281 585.980469 675.707031 585.503906 674.535156 C 585.027344 673.367188 584.585938 672.1875 584.179688 670.992188 C 583.769531 669.796875 583.398438 668.589844 583.058594 667.375 C 582.71875 666.160156 582.414062 664.933594 582.148438 663.699219 C 581.878906 662.464844 581.644531 661.226562 581.445312 659.980469 C 581.25 658.730469 581.085938 657.480469 580.960938 656.226562 C 580.835938 654.96875 580.746094 653.710938 580.691406 652.449219 C 580.636719 651.1875 580.621094 649.925781 580.636719 648.664062 C 580.65625 647.402344 580.710938 646.140625 580.800781 644.878906 C 580.890625 643.621094 581.019531 642.367188 581.179688 641.113281 C 581.34375 639.863281 581.542969 638.617188 581.777344 637.375 C 582.007812 636.132812 582.277344 634.902344 582.582031 633.675781 C 582.886719 632.449219 583.226562 631.234375 583.601562 630.03125 C 583.976562 628.824219 584.382812 627.628906 584.824219 626.445312 C 585.269531 625.265625 585.746094 624.097656 586.253906 622.941406 C 586.761719 621.785156 587.304688 620.644531 587.878906 619.523438 C 588.453125 618.398438 589.0625 617.292969 589.699219 616.203125 C 590.335938 615.113281 591.003906 614.042969 591.707031 612.992188 C 592.40625 611.941406 593.132812 610.910156 593.890625 609.902344 C 594.648438 608.890625 595.4375 607.90625 596.25 606.941406 C 597.066406 605.976562 597.910156 605.035156 598.777344 604.121094 C 599.644531 603.203125 600.539062 602.3125 601.460938 601.449219 C 602.378906 600.582031 603.324219 599.746094 604.292969 598.933594 C 605.257812 598.125 606.25 597.34375 607.261719 596.589844 C 608.273438 595.835938 609.308594 595.109375 610.363281 594.414062 C 611.414062 593.71875 612.488281 593.054688 613.582031 592.421875 C 614.671875 591.789062 615.78125 591.1875 616.910156 590.617188 C 618.035156 590.046875 619.175781 589.511719 620.335938 589.007812 C 621.492188 588.5 622.664062 588.03125 623.847656 587.59375 C 625.03125 587.15625 626.226562 586.753906 627.433594 586.382812 C 628.640625 586.015625 629.859375 585.679688 631.085938 585.382812 C 632.3125 585.082031 633.546875 584.820312 634.789062 584.589844 C 636.03125 584.363281 637.277344 584.167969 638.527344 584.011719 C 639.78125 583.855469 641.039062 583.734375 642.296875 583.648438 C 643.558594 583.5625 644.816406 583.515625 646.082031 583.5 C 647.34375 583.488281 648.605469 583.511719 649.867188 583.570312 C 651.128906 583.628906 652.386719 583.726562 653.640625 583.859375 C 654.898438 583.988281 656.148438 584.15625 657.394531 584.359375 C 658.640625 584.5625 659.878906 584.800781 661.109375 585.074219 C 662.34375 585.347656 663.566406 585.65625 664.78125 586.003906 C 665.996094 586.347656 667.199219 586.726562 668.394531 587.136719 C 669.585938 587.550781 670.765625 588 671.933594 588.480469 C 673.101562 588.960938 674.253906 589.472656 675.390625 590.019531 C 676.53125 590.566406 677.652344 591.144531 678.753906 591.757812 C 679.859375 592.367188 680.945312 593.007812 682.015625 593.683594 C 683.082031 594.355469 684.132812 595.058594 685.160156 595.792969 C 686.1875 596.523438 687.191406 597.289062 688.175781 598.078125 C 689.160156 598.867188 690.121094 599.6875 691.058594 600.53125 C 691.996094 601.378906 692.90625 602.25 693.796875 603.148438 C 694.683594 604.046875 695.542969 604.96875 696.378906 605.917969 C 697.210938 606.863281 698.019531 607.835938 698.796875 608.828125 C 699.578125 609.820312 700.328125 610.835938 701.046875 611.875 C 701.769531 612.910156 702.457031 613.964844 703.117188 615.042969 C 703.777344 616.117188 704.40625 617.214844 705.003906 618.324219 C 705.601562 619.4375 706.167969 620.566406 706.703125 621.710938 C 707.234375 622.855469 707.734375 624.011719 708.199219 625.1875 C 708.667969 626.359375 709.101562 627.542969 709.5 628.742188 C 709.898438 629.941406 710.261719 631.148438 710.589844 632.367188 C 710.921875 633.585938 711.214844 634.8125 711.472656 636.050781 C 711.734375 637.285156 711.957031 638.527344 712.144531 639.773438 C 712.332031 641.023438 712.484375 642.277344 712.601562 643.535156 C 712.71875 644.789062 712.796875 646.050781 712.839844 647.3125 C 712.886719 648.574219 712.894531 649.835938 712.867188 651.097656 C 712.835938 652.359375 712.773438 653.621094 712.671875 654.878906 C 712.574219 656.136719 712.4375 657.390625 712.265625 658.640625 C 712.089844 659.894531 711.882812 661.136719 711.640625 662.375 C 711.398438 663.613281 711.117188 664.847656 710.804688 666.070312 C 710.488281 667.292969 710.140625 668.503906 709.757812 669.707031 C 709.375 670.910156 708.957031 672.101562 708.503906 673.28125 C 708.054688 674.457031 707.570312 675.625 707.050781 676.773438 C 706.53125 677.925781 705.980469 679.0625 705.398438 680.179688 C 704.8125 681.300781 704.199219 682.402344 703.550781 683.488281 C 702.90625 684.570312 702.230469 685.636719 701.519531 686.683594 C 700.8125 687.726562 700.078125 688.753906 699.3125 689.753906 C 698.542969 690.757812 697.75 691.738281 696.929688 692.699219 C 696.105469 693.65625 695.257812 694.589844 694.378906 695.496094 C 693.503906 696.40625 692.605469 697.289062 691.675781 698.148438 C 690.75 699.007812 689.800781 699.835938 688.828125 700.640625 C 687.851562 701.441406 686.855469 702.21875 685.835938 702.964844 C 684.820312 703.710938 683.78125 704.425781 682.722656 705.113281 C 681.660156 705.800781 680.582031 706.457031 679.488281 707.082031 C 678.390625 707.703125 677.277344 708.296875 676.144531 708.859375 C 675.011719 709.421875 673.867188 709.949219 672.707031 710.445312 C 671.546875 710.9375 670.371094 711.402344 669.183594 711.828125 C 667.996094 712.257812 666.796875 712.652344 665.585938 713.011719 C 664.375 713.371094 663.15625 713.695312 661.929688 713.984375 C 660.699219 714.273438 659.464844 714.527344 658.21875 714.746094 C 656.976562 714.964844 655.726562 715.148438 654.472656 715.296875 C 653.21875 715.445312 651.960938 715.554688 650.703125 715.628906 C 649.441406 715.707031 648.179688 715.746094 646.917969 715.75 C 642.566406 715.75 638.257812 715.328125 633.992188 714.476562 C 629.726562 713.628906 625.582031 712.371094 621.5625 710.703125 C 617.542969 709.039062 613.726562 706.996094 610.113281 704.574219 C 606.496094 702.152344 603.152344 699.402344 600.078125 696.324219 Z M 600.078125 696.460938"/>
</svg>
